<svg width="252" height="593" viewBox="0 0 252 593" fill="none" xmlns="http://www.w3.org/2000/svg">
<path d="M5.48478 510.744C42.2063 488.524 72.5798 457.212 93.6735 419.832C114.767 382.452 125.869 340.266 125.907 297.345C125.945 254.424 114.918 212.218 93.8899 174.8C72.8623 137.383 42.5442 106.018 5.86204 83.733" stroke="black"/>
<line y1="-0.5" x2="168.537" y2="-0.5" transform="matrix(1 -1.24272e-08 -1.24272e-08 -1 6.05859 0)" stroke="black"/>
<line y1="-0.5" x2="168.537" y2="-0.5" transform="matrix(1 -1.24272e-08 -1.24272e-08 -1 6.05859 591.752)" stroke="black"/>
<line y1="-0.5" x2="593" y2="-0.5" transform="matrix(1.70282e-09 1 1 -1.70282e-09 174.595 0)" stroke="black"/>
<line x1="3.29291e-10" y1="295.5" x2="252" y2="295.5" stroke="black" stroke-dasharray="6 8"/>
</svg>
