<svg width="454" height="600" viewBox="0 0 454 600" fill="none" xmlns="http://www.w3.org/2000/svg">
<circle cx="122.918" cy="122.918" r="122.793" transform="matrix(0.863872 -0.503711 0.863872 0.503711 15.7676 123.83)" stroke="black" stroke-width="0.25"/>
<rect x="0.215968" width="245.585" height="245.585" transform="matrix(0.863872 -0.503711 0.863872 0.503711 15.797 161.481)" stroke="black" stroke-width="0.25"/>
<line x1="123.077" y1="185.349" x2="337.818" y2="64.4636" stroke="black" stroke-width="0.25" stroke-dasharray="6 8"/>
<line x1="334.061" y1="185.566" x2="125.327" y2="61.6766" stroke="black" stroke-width="0.25" stroke-dasharray="6 8"/>
<circle cx="65.6257" cy="65.6257" r="65.5007" transform="matrix(0.863872 -0.503711 0.863872 0.503711 113.377 401.739)" stroke="black" stroke-width="0.25"/>
<rect x="0.215968" width="131.001" height="131.001" transform="matrix(0.863872 -0.503711 0.863872 0.503711 113.407 401.848)" stroke="black" stroke-width="0.25"/>
<line x1="170.641" y1="434.533" x2="285.291" y2="369.993" stroke="black" stroke-width="0.25" stroke-dasharray="6 8"/>
<line y1="-0.125" x2="131.568" y2="-0.125" transform="matrix(-0.871413 -0.490551 -0.490551 0.871413 285.352 434.642)" stroke="black" stroke-width="0.25" stroke-dasharray="6 8"/>
<circle cx="65.6257" cy="65.6257" r="65.5007" transform="matrix(0.863872 -0.503711 0.863872 0.503711 0 467.813)" stroke="black" stroke-width="0.25"/>
<rect x="0.215968" width="131.001" height="131.001" transform="matrix(0.863872 -0.503711 0.863872 0.503711 0.0293993 467.922)" stroke="black" stroke-width="0.25"/>
<line x1="57.2639" y1="500.608" x2="171.914" y2="436.067" stroke="black" stroke-width="0.25" stroke-dasharray="6 8"/>
<line y1="-0.125" x2="131.568" y2="-0.125" transform="matrix(-0.871413 -0.490551 -0.490551 0.871413 171.975 500.717)" stroke="black" stroke-width="0.25" stroke-dasharray="6 8"/>
<circle cx="65.6257" cy="65.6257" r="65.5007" transform="matrix(0.863872 -0.503711 0.863872 0.503711 226.754 467.813)" stroke="black" stroke-width="0.25"/>
<rect x="0.215968" width="131.001" height="131.001" transform="matrix(0.863872 -0.503711 0.863872 0.503711 226.784 467.922)" stroke="black" stroke-width="0.25"/>
<line x1="284.018" y1="500.608" x2="398.668" y2="436.067" stroke="black" stroke-width="0.25" stroke-dasharray="6 8"/>
<line y1="-0.125" x2="131.568" y2="-0.125" transform="matrix(-0.871413 -0.490551 -0.490551 0.871413 398.729 500.717)" stroke="black" stroke-width="0.25" stroke-dasharray="6 8"/>
<circle cx="65.6257" cy="65.6257" r="65.5007" transform="matrix(0.863872 -0.503711 0.863872 0.503711 113.377 533.887)" stroke="black" stroke-width="0.25"/>
<rect x="0.215968" width="131.001" height="131.001" transform="matrix(0.863872 -0.503711 0.863872 0.503711 113.407 533.996)" stroke="black" stroke-width="0.25"/>
<line x1="170.641" y1="566.681" x2="285.291" y2="502.141" stroke="black" stroke-width="0.25" stroke-dasharray="6 8"/>
<line y1="-0.125" x2="131.568" y2="-0.125" transform="matrix(-0.871413 -0.490551 -0.490551 0.871413 285.352 566.79)" stroke="black" stroke-width="0.25" stroke-dasharray="6 8"/>
</svg>
